<?xml version="1.0" encoding="utf-8"?>
<!-- Generator: Adobe Illustrator 19.2.1, SVG Export Plug-In . SVG Version: 6.00 Build 0)  -->
<svg version="1.1" id="Layer_1_1_" xmlns="http://www.w3.org/2000/svg" xmlns:xlink="http://www.w3.org/1999/xlink" x="0px" y="0px"
	 viewBox="0 0 16 16" style="enable-background:new 0 0 16 16;" xml:space="preserve">
<style type="text/css">
	.st0{fill:#FF3A2F;}
	.st1{fill:#0CB04A;}
	.st2{opacity:0.35;fill:#010101;enable-background:new    ;}
	.st3{opacity:0.25;fill:#020403;enable-background:new    ;}
</style>
<path d="M14,0H2C0.9,0,0,0.9,0,2v9c0,1.1,0.9,2,2,2h3v2H3v1h10v-1h-2v-2h3c1.1,0,2-0.9,2-2V2C16,0.9,15.1,0,14,0z M10,15H6v-2h4V15z
	 M15,10H1V2c0-0.6,0.4-1,1-1h12c0.6,0,1,0.4,1,1V10z"/>
<g id="group-76svg">
	<path id="path-1_142_" class="st0" d="M10,2.8C9.5,2.6,8.8,2.4,8,2.8C7.2,2.4,6.5,2.6,6,2.8C4.8,3.5,3.9,4.7,3.9,6.1
		c0,2,1.8,3.7,4.1,3.7c2.3,0,4.1-1.7,4.1-3.7C12.1,4.7,11.2,3.5,10,2.8z"/>
	<path id="path-2_142_" class="st1" d="M10,2.8C9.5,2.6,8.8,2.4,8,2.8C7.2,2.4,6.5,2.6,6,2.8C5.4,3.1,4.9,3.6,4.5,4.1
		c0,0,1-0.5,1.7-0.4c0,0,0.8,0,0.6,0.8c0,0,0,0,0,0C7.2,4.1,7.7,3.8,8,3.8c0.3,0,0.8,0.3,1.2,0.7c0,0,0,0,0,0C9,3.7,9.8,3.7,9.8,3.7
		c0.7-0.1,1.7,0.4,1.7,0.4C11.1,3.6,10.6,3.1,10,2.8z"/>
	<path id="path-3_142_" class="st2" d="M6.2,3.7c-0.3,0-0.7,0.1-1.1,0.2C5,4,4.9,4.1,4.8,4.3c0,0,1-0.5,1.7-0.4c0,0,0.1,0,0.2,0
		C6.5,3.7,6.2,3.7,6.2,3.7z"/>
	<path id="path-4_141_" class="st2" d="M11.5,4.1c0,0-1-0.5-1.7-0.4c0,0-0.7,0-0.6,0.7c0.1,0.1,0.2,0.2,0.3,0.3c0,0,0,0,0,0
		c-0.2-0.8,0.6-0.8,0.6-0.8C10.5,3.8,11.2,4.1,11.5,4.1L11.5,4.1L11.5,4.1z"/>
	<path id="path-5_141_" class="st2" d="M8,3.8c-0.2,0-0.6,0.2-0.9,0.4c0,0.1,0,0.2,0,0.4c0,0,0,0,0,0C7.5,4.2,8,3.9,8.3,3.9
		c0.1,0,0.2,0,0.3,0.1C8.4,3.9,8.2,3.8,8,3.8z"/>
	<path id="path-7_139_" class="st1" d="M8,3.1C7.9,2,8.9,1.3,8.9,1.3h0H7.1C7.1,1.3,8.1,2,8,3.1L8,3.1"/>
	<path id="path-8_136_" class="st3" d="M8.9,1.3H7.1c0,0,0.1,0.1,0.3,0.3h1h0c0,0-0.3,0.3-0.6,0.7C7.9,2.5,8,2.8,8,3.1h0
		C7.9,2,8.9,1.3,8.9,1.3C8.9,1.3,8.9,1.3,8.9,1.3z"/>
	<path id="path-9_130_" class="st0" d="M5.3,7.9c-0.1,0-0.1,0-0.2-0.1c0,0-1.1-1.2-0.5-2.8c0.1-0.1,0.2-0.2,0.3-0.1
		C5.1,4.9,5.1,5,5.1,5.1C4.5,6.5,5.4,7.4,5.4,7.4c0.1,0.1,0.1,0.3,0,0.3C5.4,7.8,5.3,7.9,5.3,7.9z"/>
</g>
</svg>
